<?xml version="1.0" encoding="UTF-8"?><svg id="Layer_1" xmlns="http://www.w3.org/2000/svg" viewBox="0 0 283.46 283.46"><defs><style>.cls-1{fill:#231f20;}</style></defs><path class="cls-1" d="M60.88,114.67c-15.42,0-27.96,12.52-27.96,27.92s12.54,27.92,27.96,27.92,27.96-12.52,27.96-27.92-12.54-27.92-27.96-27.92ZM60.88,159.51c-9.34,0-16.95-7.59-16.95-16.92s7.6-16.92,16.95-16.92,16.94,7.59,16.94,16.92-7.6,16.92-16.94,16.92Z"/><path class="cls-1" d="M195.11,93.36c15.42,0,27.96-12.52,27.96-27.92s-12.54-27.92-27.96-27.92-27.96,12.52-27.96,27.92,12.54,27.92,27.96,27.92ZM195.11,48.53c9.34,0,16.94,7.59,16.94,16.91s-7.6,16.92-16.94,16.92-16.95-7.59-16.95-16.92,7.6-16.91,16.95-16.91Z"/><path class="cls-1" d="M195.12,192.02c-15.42,0-27.96,12.52-27.96,27.92s12.54,27.92,27.96,27.92,27.96-12.52,27.96-27.92-12.54-27.92-27.96-27.92ZM195.12,236.85c-9.34,0-16.94-7.59-16.94-16.91s7.6-16.92,16.94-16.92,16.95,7.59,16.95,16.92-7.6,16.91-16.95,16.91Z"/><path class="cls-1" d="M159.97,148.17l17.21,29.76c.72,1.24.29,2.82-.95,3.54l-5.2,2.99c-1.24.72-2.83.29-3.55-.95l-17.21-29.76-1.47-2.55c-1.08-1.87-3.09-3.03-5.26-3.03h-37.38c-1.43,0-2.59-1.16-2.59-2.59v-5.99c0-1.43,1.16-2.59,2.59-2.59h37.38c2.17,0,4.18-1.16,5.26-3.03l1.47-2.55,17.21-29.76c.72-1.24,2.3-1.67,3.55-.95l5.2,2.99c1.24.72,1.67,2.3.95,3.54l-17.21,29.76-1.48,2.55c-1.08,1.87-1.08,4.18,0,6.05l1.48,2.55h0Z"/></svg>